<svg width="17" height="20" viewBox="0 0 17 20" fill="none" xmlns="http://www.w3.org/2000/svg">
<path d="M0.0096566 10.8722C-0.161088 7.85795 1.94866 4.78129 5.05107 4.78129C5.76548 4.78129 6.08946 4.95047 6.86758 5.19706C7.28419 5.32908 7.99015 5.69597 8.39836 5.69597C8.80657 5.69597 9.29643 5.42573 9.9572 5.1789C10.8946 4.82875 11.449 4.7913 11.9906 4.78129C13.8072 4.78129 15.1408 5.55476 15.9911 6.75617C14.5876 7.6864 13.848 8.81421 13.8071 10.6436C13.8071 12.3066 14.8481 13.9281 16.5217 14.6557C16.1135 16.4019 13.9092 19.9983 12.0927 19.9983C11.4689 19.9619 11.0856 19.8628 10.3578 19.5825C9.81548 19.3404 9.09233 19.1667 8.62288 19.1667C8.13303 19.146 7.58402 19.3077 6.89819 19.5825C6.31651 19.8156 5.96992 19.9479 5.17351 19.9983C3.66314 20.0937 0.312286 16.2148 0.0096566 10.8722Z" fill="#0B0920"/>
<path d="M9.37807 1.53833C8.53554 2.46245 8.21467 3.67952 8.2759 4.78129C9.66381 4.67735 10.6231 4.09528 11.5008 3.01429C12.3784 1.93331 12.3849 1.1478 12.3784 0C11.3569 0.169302 10.1741 0.665223 9.37807 1.53833Z" fill="#0B0920"/>
</svg>
